name D:\school\WTK\thesis\model\3dpredictsim\Results\MidTarsalJoint\Fal_s1_bCst_PF_Natali2010_ls150_MT_k2000_d010_MTP_T5_ig24.mot
datacolumns 128
datarows 4
range 0.55618874 0.58956007
endheader
time	pelvis_tilt	pelvis_list	pelvis_rotation	pelvis_tx	pelvis_ty	pelvis_tz	hip_flexion_l	hip_adduction_l	hip_rotation_l	hip_flexion_r	hip_adduction_r	hip_rotation_r	knee_angle_l	knee_angle_r	ankle_angle_l	ankle_angle_r	subtalar_angle_l	subtalar_angle_r	mtj_angle_l	mtj_angle_r	mtp_angle_l	mtp_angle_r	lumbar_extension	lumbar_bending	lumbar_rotation	arm_flex_l	arm_add_l	arm_rot_l	arm_flex_r	arm_add_r	arm_rot_r	elbow_flex_l	elbow_flex_r	pro_sup_l	pro_sup_r	glut_med1_l/activation	glut_med2_l/activation	glut_med3_l/activation	glut_min1_l/activation	glut_min2_l/activation	glut_min3_l/activation	semimem_l/activation	semiten_l/activation	bifemlh_l/activation	bifemsh_l/activation	sar_l/activation	add_long_l/activation	add_brev_l/activation	add_mag1_l/activation	add_mag2_l/activation	add_mag3_l/activation	tfl_l/activation	pect_l/activation	grac_l/activation	glut_max1_l/activation	glut_max2_l/activation	glut_max3_l/activation	iliacus_l/activation	psoas_l/activation	quad_fem_l/activation	gem_l/activation	peri_l/activation	rect_fem_l/activation	vas_med_l/activation	vas_int_l/activation	vas_lat_l/activation	med_gas_l/activation	lat_gas_l/activation	soleus_l/activation	tib_post_l/activation	flex_dig_l/activation	flex_hal_l/activation	tib_ant_l/activation	per_brev_l/activation	per_long_l/activation	per_tert_l/activation	ext_dig_l/activation	ext_hal_l/activation	ercspn_l/activation	intobl_l/activation	extobl_l/activation	glut_med1_r/activation	glut_med2_r/activation	glut_med3_r/activation	glut_min1_r/activation	glut_min2_r/activation	glut_min3_r/activation	semimem_r/activation	semiten_r/activation	bifemlh_r/activation	bifemsh_r/activation	sar_r/activation	add_long_r/activation	add_brev_r/activation	add_mag1_r/activation	add_mag2_r/activation	add_mag3_r/activation	tfl_r/activation	pect_r/activation	grac_r/activation	glut_max1_r/activation	glut_max2_r/activation	glut_max3_r/activation	iliacus_r/activation	psoas_r/activation	quad_fem_r/activation	gem_r/activation	peri_r/activation	rect_fem_r/activation	vas_med_r/activation	vas_int_r/activation	vas_lat_r/activation	med_gas_r/activation	lat_gas_r/activation	soleus_r/activation	tib_post_r/activation	flex_dig_r/activation	flex_hal_r/activation	tib_ant_r/activation	per_brev_r/activation	per_long_r/activation	per_tert_r/activation	ext_dig_r/activation	ext_hal_r/activation	ercspn_r/activation	intobl_r/activation	extobl_r/activation	
          0.55618874	         -2.92932344	          1.98059941	         -4.68115995	          0.69523593	          0.92080504	          0.00167234	         29.93588140	          3.20796312	         -1.96265867	        -17.54412520	         -0.83915401	          6.49893917	        -13.18760538	         -4.95349520	          6.36330125	          0.13143919	         -4.16609185	          7.82331593	         -0.00600369	          0.92107194	         -0.89976908	         18.57303127	         -2.28713222	         -0.13939129	          1.87788641	         -4.31108686	        -13.46811369	          5.67495536	          4.68405783	        -13.45040479	         15.24626663	         18.13069414	         33.61385307	         86.51662706	         86.51662706	          0.06282296	          0.05001626	          0.05926810	          0.05000418	          0.05000355	          0.05004134	          0.07783576	          0.05927779	          0.22477645	          0.05002559	          0.05000296	          0.13031890	          0.17238200	          0.15733304	          0.14117066	          0.11511544	          0.05004448	          0.05006850	          0.09008863	          0.05927097	          0.09352758	          0.10390588	          0.05000032	          0.05000071	          0.15322535	          0.05000083	          0.05000454	          0.05000039	          0.05000313	          0.05000600	          0.05000181	          0.05000012	          0.05000028	          0.05000004	          0.05926961	          0.05000971	          0.05583155	          0.45736618	          0.27574115	          0.20169516	          0.08488636	          0.43151274	          0.15637222	          0.07025828	          0.12802329	          0.12073416	          0.32630654	          0.11702872	          0.08328552	          0.35659021	          0.23059413	          0.12402150	          0.05000201	          0.05000064	          0.05000054	          0.07480398	          0.11705928	          0.05000033	          0.05000023	          0.05000035	          0.05000100	          0.05000090	          0.35396540	          0.05000130	          0.05000111	          0.05009850	          0.05001236	          0.05000190	          0.42738608	          0.64624680	          0.05000078	          0.05001582	          0.06184754	          0.24644506	          0.05000077	          0.05000079	          0.05000078	          0.33495174	          0.45975266	          0.31835388	          0.29430584	          0.31895708	          0.39351421	          0.05000013	          0.05803116	          0.12663112	          0.05000062	          0.05000017	          0.05000063	          0.05000003	          0.05000003	          0.05000005	
          0.56731252	         -2.92981944	          2.07689091	         -4.98424212	          0.71161605	          0.91973444	          0.00147317	         29.39362020	          3.55795144	         -1.76778702	        -17.48591015	         -1.13783912	          6.28880834	        -12.71057556	         -6.72958668	          6.01012087	         -0.46524701	         -4.56570101	          8.75686123	         -0.00383544	          0.76396511	         -0.89230265	         19.70241996	         -2.11931079	         -0.34600672	          1.94829259	         -5.09893516	        -13.46857268	          5.36425112	          4.47870313	        -13.45664837	         15.62763552	         17.66614049	         34.77829433	         86.51662706	         86.51662706	          0.05299786	          0.05032416	          0.05000058	          0.05926983	          0.05926970	          0.05000590	          0.07306213	          0.05000700	          0.21668251	          0.05000038	          0.05000120	          0.12925120	          0.30447835	          0.16595018	          0.14975551	          0.11537026	          0.05000037	          0.08322867	          0.07600056	          0.05000184	          0.14476879	          0.16002860	          0.05277360	          0.05000104	          0.12928476	          0.24947775	          0.12973080	          0.06123350	          0.15443668	          0.15066912	          0.13494880	          0.05000061	          0.05000084	          0.05116180	          0.05000007	          0.05000116	          0.05000050	          0.58758002	          0.27959650	          0.17015036	          0.28620814	          0.50330685	          0.24378815	          0.05926989	          0.10800044	          0.10185133	          0.27527367	          0.09872545	          0.07025971	          0.30081982	          0.19452931	          0.10462460	          0.05000241	          0.05000075	          0.05000053	          0.06310469	          0.09875165	          0.11225950	          0.05645559	          0.05001367	          0.05001399	          0.05000256	          0.29860560	          0.10317429	          0.05003196	          0.05002083	          0.05001111	          0.05001018	          0.37009071	          0.61431862	          0.05005421	          0.05000315	          0.05217473	          0.20790334	          0.05823530	          0.05030818	          0.05009149	          0.28256524	          0.38784742	          0.29537089	          0.28991216	          0.29266128	          0.38317026	          0.05000010	          0.05925796	          0.12725958	          0.05000054	          0.05000015	          0.05000054	          0.05000010	          0.05000067	          0.05000031	
          0.57843629	         -2.92560806	          2.17210687	         -5.26392447	          0.72834851	          0.91869940	          0.00126864	         28.74787741	          3.88754842	         -1.52213835	        -17.32737847	         -1.43356808	          6.07600016	        -12.84436773	         -8.69269906	          5.40711191	         -1.20206796	         -4.94533230	          9.67500655	         -0.01083325	          0.57648382	         -0.87590671	         20.77494795	         -1.92510451	         -0.56051452	          2.01124154	         -5.93222197	        -13.47093841	          5.08878130	          4.19370943	        -13.46468580	         15.94328561	         17.26746306	         35.91936234	         86.51662706	         86.51662706	          0.05000004	          0.05000014	          0.10819645	          0.05000013	          0.05000015	          0.05000027	          0.06163539	          0.05000146	          0.18279345	          0.05000067	          0.05000413	          0.10903665	          0.25685852	          0.31504984	          0.21685835	          0.13613152	          0.05000157	          0.07021718	          0.11973661	          0.08191668	          0.12329681	          0.13500053	          0.05000019	          0.05000157	          0.36261051	          0.21045946	          0.10944097	          0.05927179	          0.15141396	          0.15721354	          0.13128376	          0.05000057	          0.05927217	          0.05000006	          0.06903267	          0.05000680	          0.05927081	          0.49568260	          0.32381046	          0.21083294	          0.24144547	          0.45656611	          0.20565977	          0.05000009	          0.09110917	          0.08592177	          0.23222099	          0.08328482	          0.05927114	          0.25377205	          0.16410502	          0.08826139	          0.05000733	          0.05000116	          0.05000130	          0.05323525	          0.08330730	          0.19559541	          0.08478908	          0.05930486	          0.05919135	          0.05927067	          0.25190395	          0.08705798	          0.05000377	          0.05000651	          0.05000434	          0.05000574	          0.31220863	          0.56690101	          0.05000077	          0.05003174	          0.05914012	          0.17538909	          0.13039782	          0.14875791	          0.14494659	          0.23837199	          0.32718805	          0.24917485	          0.24861667	          0.24689025	          0.32324397	          0.05000008	          0.05000029	          0.13577354	          0.05000025	          0.05000008	          0.05000036	          0.05793269	          0.05927019	          0.05381149	
          0.58956007	         -2.91761066	          2.26907501	         -5.51592230	          0.74533264	          0.91770249	          0.00107662	         27.97989043	          4.14447489	         -1.25853775	        -17.08760158	         -1.72576583	          5.85351328	        -13.30194274	        -10.78546416	          4.92821874	         -2.11451858	         -5.34358280	         10.54388457	         -0.03026275	          0.37322000	         -0.93832571	         21.71558034	         -1.71380282	         -0.78400020	          2.06298341	         -6.78485284	        -13.47993388	          4.87455023	          3.84426428	        -13.47112917	         16.19728356	         16.91123923	         37.03172824	         86.51662706	         86.51662706	          0.24043339	          0.23327539	          0.28868739	          0.34260524	          0.21643023	          0.18696729	          0.07184327	          0.05000200	          0.15595854	          0.05000754	          0.05001345	          0.09198342	          0.21668597	          0.26577621	          0.18294197	          0.11962116	          0.05000125	          0.05926685	          0.10101065	          0.15066962	          0.14808034	          0.11388675	          0.05545595	          0.05000172	          0.30589832	          0.17754386	          0.22910375	          0.05000176	          0.12773303	          0.13262558	          0.11075115	          0.05000165	          0.05000267	          0.05176467	          0.05823617	          0.05000092	          0.05000185	          0.58513793	          0.34868161	          0.17785938	          0.35817531	          0.53823298	          0.18320927	          0.06460031	          0.10938812	          0.07248361	          0.33327134	          0.07025911	          0.05000121	          0.32551732	          0.13843913	          0.07445738	          0.05000316	          0.05000055	          0.05000045	          0.05000044	          0.07027861	          0.16500547	          0.08637420	          0.05003053	          0.05000328	          0.05000208	          0.21251890	          0.07963337	          0.05000316	          0.05000485	          0.05000286	          0.05000199	          0.26337937	          0.52915947	          0.05000051	          0.05000124	          0.05000037	          0.14795833	          0.11000407	          0.12549265	          0.12227735	          0.20109056	          0.27601579	          0.21020386	          0.20973316	          0.20827698	          0.27268892	          0.05000004	          0.09840864	          0.15542283	          0.05000030	          0.05000011	          0.05000031	          0.05559167	          0.05000034	          0.05000012	
